<svg width="318" height="279" xmlns="http://www.w3.org/2000/svg" xmlns:xlink="http://www.w3.org/1999/xlink"><defs><path d="M310.34 153.5l-62.43 108.131a30 30 0 0 1-25.98 15H97.07a30 30 0 0 1-25.98-15L8.66 153.5a30 30 0 0 1 0-30L71.09 15.369a30 30 0 0 1 25.98-15h124.86a30 30 0 0 1 25.98 15L310.34 123.5a30 30 0 0 1 0 30z" id="a"/></defs><g fill="none" fill-rule="evenodd"><g transform="translate(-1 1)"><mask id="b" fill="#fff"><use xlink:href="#a"/></mask><g mask="url(#b)" fill="#FFE01C" fill-rule="nonzero"><path transform="translate(-58 -13)" d="M0.5 0H455.5V303H0.5z"/></g></g><path d="M201.624 130.467a14.672 14.672 0 0 1 3.762 0c.672-1.544.79-4.204.182-7.099-.902-4.301-2.123-6.91-4.643-6.502-2.52.407-2.617 3.523-1.715 7.829.51 2.418 1.411 4.49 2.427 5.772h-.013zm-21.665 3.419c1.808.806 2.913 1.314 3.35.859.764-.782-1.408-3.786-4.903-5.277a12.753 12.753 0 0 0-12.382 1.483c-1.213.879-2.35 2.105-2.188 2.846.344 1.508 4.045-1.092 9.142-1.403 2.831-.177 5.177.706 6.981 1.496v-.004zm-3.64 2.068c-3.669.572-6.068 2.632-5.449 4.072.364.137.473.326 2.108-.327a15.014 15.014 0 0 1 7.572-.786c1.181.137 1.743.21 1.998-.198.59-.894-2.31-3.225-6.225-2.761h-.004zm21.912 6.894c1.367-2.77-4.41-5.616-5.785-2.822-1.375 2.793 4.417 5.595 5.793 2.81l-.008.012zm6.334-8.253c-3.098-.052-3.216 6.37-.105 6.422 3.11.053 3.228-6.373.113-6.434l-.008.012zm-88.5 31.808c-.535.125-2.428.584-3.427-.948-2.103-3.225 4.494-8.216 1.214-14.42-3.681-7.043-11.253-5.458-14.178-2.233-3.523 3.87-3.527 9.49-2.023 9.707 1.728.23 1.65-2.608 2.986-4.688a5.204 5.204 0 0 1 7.22-1.5c4.688 3.06.554 7.16.922 11.538.563 6.724 7.451 6.6 8.73 3.628a.836.836 0 0 0-.081-.94c.012.36.275-.523-1.356-.157l-.008.013zM237.3 159.52c-1.355-4.729-1.04-3.717-2.742-8.272.991-1.48 6.185-9.675-1.242-17.436-4.207-4.402-13.712-6.667-16.625-7.474-.607-4.591 1.881-23.663-8.705-33.46 8.41-8.687 13.656-18.257 13.644-26.465-.024-15.787-19.477-20.56-43.451-10.671l-5.077 2.149c-.024-.02-9.186-8.978-9.324-9.099C136.455 25.04 50.996 119.7 78.32 142.694l5.97 5.044a29.131 29.131 0 0 0-1.658 13.504c1.36 13.465 14.562 24.358 27.316 24.342 23.352 53.64 108.366 53.729 130.367 1.209.704-1.802 3.685-9.921 3.685-17.085 0-7.163-4.081-10.187-6.686-10.187h-.013zM109.48 178.936c-9.23-.246-19.198-8.526-20.189-18.347-2.495-24.716 30.039-30.343 33.979-4.97 1.836 11.949-1.89 23.579-13.802 23.305l.012.012zm-7.487-46.038c-6.132 1.19-11.537 4.652-14.845 9.454-1.974-1.641-5.663-4.838-6.307-6.047-5.262-10.018 5.76-29.429 13.47-40.398 19.056-27.103 48.896-47.614 62.718-43.893 2.245.633 9.684 9.228 9.684 9.228s-13.814 7.635-26.616 18.282c-17.256 13.243-30.293 32.488-38.104 53.374zm96.627 40.777s-14.457 2.137-28.117-2.85c2.512-8.127 10.922 2.459 38.994-5.567 6.185-1.766 14.307-5.241 20.63-10.22a41.356 41.356 0 0 1 2.88 9.788c1.48-.266 5.764-.21 4.627 7.297-1.33 8.01-4.745 14.513-10.489 20.495a43.213 43.213 0 0 1-12.6 9.397 53.675 53.675 0 0 1-8.227 3.46c-21.645 7.046-43.808-.702-50.967-17.336a26.681 26.681 0 0 1-1.436-3.926c-3.046-10.965-.462-24.12 7.62-32.4.498-.528 1.004-1.149 1.004-1.93a3.4 3.4 0 0 0-.777-1.831c-2.832-4.084-12.617-11.046-10.65-24.522 1.415-9.676 9.906-16.493 17.826-16.09l2.022.117c3.43.202 6.428.641 9.255.758 4.729.202 8.98-.48 14.012-4.66 1.699-1.41 3.062-2.636 5.364-3.027a7.079 7.079 0 0 1 5.501.903c4.045 2.676 4.611 9.163 4.822 13.904.117 2.709.445 9.272.558 11.138.255 4.302 1.387 4.906 3.685 5.644 1.29.423 2.488.738 4.251 1.234 5.344 1.495 8.495 3.015 10.517 4.962a6.596 6.596 0 0 1 1.918 3.745c.63 4.584-3.568 10.24-14.688 15.384-18.894 8.74-37.894 5.825-40.644 5.515-8.15-1.093-12.795 9.4-7.908 16.588 9.158 13.47 49.51 8.063 61.23-8.606.278-.404.048-.641-.296-.404-16.896 11.522-39.261 15.404-51.962 10.482-1.93-.746-5.959-2.596-6.448-6.72 17.636 5.438 28.72.298 28.72.298s.82-1.125-.227-1.02zM137.187 95.79c6.772-7.8 15.113-14.585 22.584-18.395a.296.296 0 0 1 .359.045.294.294 0 0 1 .045.358c-.59 1.073-1.735 3.362-2.1 5.1a.304.304 0 0 0 .47.318c4.648-3.156 12.734-6.538 19.82-6.974a.31.31 0 1 1 .21.556c-1.17.9-2.22 1.95-3.118 3.12a.301.301 0 0 0 .239.48c4.98.037 11.997 1.774 16.584 4.33.308.173.09.77-.258.694-28.133-6.426-49.786 7.47-54.406 10.816a.308.308 0 0 1-.396-.054.306.306 0 0 1-.008-.398l-.025.004z" fill="#000" fill-rule="nonzero"/></g></svg>